<?xml version="1.0" encoding="UTF-8" standalone="no"?>
<svg
   viewBox="0 0 128 128"
   color="#ffffff"
   class="c-iiBHHN c-iiBHHN-gnsFuh-twinkle-false"
   version="1.1"
   id="svg9"
   sodipodi:docname="lunarclient.svg"
   inkscape:version="1.3.2 (091e20ef0f, 2023-11-25)"
   width="128"
   height="128"
   xml:space="preserve"
   xmlns:inkscape="http://www.inkscape.org/namespaces/inkscape"
   xmlns:sodipodi="http://sodipodi.sourceforge.net/DTD/sodipodi-0.dtd"
   xmlns="http://www.w3.org/2000/svg"
   xmlns:svg="http://www.w3.org/2000/svg"><defs
     id="defs9" /><sodipodi:namedview
     id="namedview9"
     pagecolor="#7f7f7f"
     bordercolor="#000000"
     borderopacity="0.25"
     inkscape:showpageshadow="2"
     inkscape:pageopacity="0.0"
     inkscape:pagecheckerboard="0"
     inkscape:deskcolor="#d1d1d1"
     inkscape:zoom="7.2810812"
     inkscape:cx="70.731254"
     inkscape:cy="49.374535"
     inkscape:window-width="1920"
     inkscape:window-height="1043"
     inkscape:window-x="0"
     inkscape:window-y="0"
     inkscape:window-maximized="1"
     inkscape:current-layer="svg9"
     showguides="true" /><g
     id="g9"
     transform="matrix(0.64958284,0,0,0.64958282,9.4999992,14.351608)"><g
       id="Top_LC"
       data-name="Layer 12"><path
         class="cls-1"
         d="m 162,55.81 v 63 l -11,-0.68 V 58.76 A 18.53,18.53 0 0 0 141.17,42.6 L 94.23,15.83 a 20.54,20.54 0 0 0 -19.66,0 L 27.74,42.6 a 18.51,18.51 0 0 0 -9.83,16.16 v 59.35 l -11.06,0.67 v -63 A 22.92,22.92 0 0 1 18.32,36 L 72.94,3.07 a 22.94,22.94 0 0 1 22.92,0 L 150.49,36 A 22.93,22.93 0 0 1 162,55.81 Z"
         id="path1" /></g><g
       id="Bottom_LC"
       data-name="Layer 11"><polygon
         class="cls-1"
         points="14.99,125.73 14.99,129.49 0,129.49 0,132.51 26.33,132.51 26.33,136.27 2.94,136.27 2.94,139.3 39.99,139.3 39.99,143.06 21.24,143.06 21.24,146.08 63.31,146.08 63.31,149.84 57.34,149.84 57.34,152.86 111.48,152.86 111.48,149.84 104.73,149.84 104.73,146.08 146.56,146.08 146.56,143.06 128.29,143.06 128.29,139.3 164.86,139.3 164.86,136.27 142.57,136.27 142.57,132.51 167.8,132.51 167.8,129.49 154.44,129.49 154.44,125.73 167.8,125.73 167.8,122.7 0,122.7 0,125.73 "
         id="polygon1" /></g><g
       id="Star_1_LC"
       data-name="Layer 10"><polygon
         class="cls-1"
         points="27.8,51.27 28.73,54.55 32.01,55.48 28.73,56.42 27.8,59.7 26.86,56.42 23.58,55.48 26.86,54.55 "
         id="polygon2" /></g><g
       id="Star_2_LC"
       data-name="Layer 9"><polygon
         class="cls-1"
         points="120.61,43.11 121.54,46.4 124.82,47.33 121.54,48.26 120.61,51.55 119.67,48.26 116.39,47.33 119.67,46.4 "
         id="polygon3" /></g><g
       id="Star_3_LC"
       data-name="Layer 8"><polygon
         class="cls-1"
         points="82.41,23.71 83.34,27 86.62,27.93 83.34,28.86 82.41,32.15 81.47,28.86 78.19,27.93 81.47,27 "
         id="polygon4" /></g><g
       id="Star_4_LC"
       data-name="Layer 7"><polygon
         class="cls-1"
         points="94.56,60.37 95.49,63.66 98.78,64.59 95.49,65.52 94.56,68.8 93.63,65.52 90.34,64.59 93.63,63.66 "
         id="polygon5" /></g><g
       id="Star_5_LC"
       data-name="Layer 6"><polygon
         class="cls-1"
         points="76.92,49.4 78.13,53.67 82.41,54.88 78.13,56.1 76.92,60.37 75.71,56.1 71.44,54.88 75.71,53.67 "
         id="polygon6" /></g><g
       id="Star_6_LC"
       data-name="Layer 5"><polygon
         class="cls-1"
         points="102.81,79.11 104.02,83.38 108.29,84.59 104.02,85.8 102.81,90.07 101.59,85.8 97.32,84.59 101.59,83.38 "
         id="polygon7" /></g><g
       id="Moon_LC"
       data-name="Layer 4"><path
         class="cls-1"
         d="m 110.14,104.23 a 51.82,51.82 0 0 1 -42.59,-73.34 51.82,51.82 0 1 0 66.29,69.83 51.64,51.64 0 0 1 -23.7,3.51 z"
         id="path7" /></g><g
       id="Star_7_LC"
       data-name="Layer 3"><polygon
         class="cls-1"
         points="29.74,98.37 31.32,103.97 36.93,105.56 31.32,107.15 29.74,112.75 28.15,107.15 22.55,105.56 28.15,103.97 "
         id="polygon8" /></g><g
       id="Star_8_LC"
       data-name="Layer 2"><polygon
         class="cls-1"
         points="130.03,70.52 131.92,77.21 138.62,79.11 131.92,81 130.03,87.7 128.13,81 121.44,79.11 128.13,77.21 "
         id="polygon9" /></g></g></svg>
